#!OML:ASF H:\Terrain\Patient Classification 1\Walking\liu\liu.ASF
:FULLY-SPECIFIED
:DEGREES
81
root 9.310070 16.395700 -25.545700 4.316470 -7.997180 2.348710
lowerback -5.621957 -1.154450 -4.235374
upperback -1.727154 -1.375286 2.893198
thorax 1.526096 -0.692644 5.288514
lowerneck -24.365330 -4.388934 -12.890571
upperneck 21.183361 -5.027000 13.246421
head 11.421741 -1.721951 6.159186
rclavicle 0.000000 0.000000
rhumerus -48.101353 15.363370 -98.017708
rradius 43.999893
rwrist -24.344980
rhand -33.729080 -24.930620
rfingers 7.837522
rthumb -4.353250 -57.867924
lclavicle 0.000000 0.000000
lhumerus -30.582201 -13.339261 96.149574
lradius 28.315762
lwrist 1.198417
lhand -14.215520 -26.372610
lfingers 7.837522
lthumb 14.483920 6.147988
rfemur -23.979561 0.525303 19.865231
rtibia 68.711395
rfoot -17.376150 -13.566411
rtoes -10.952106
lfemur -18.252300 3.226399 -29.732561
ltibia 30.309620
lfoot -17.289249 10.310729
ltoes 0.940812
82
root 9.316640 16.392300 -25.434500 4.266400 -7.744790 2.390870
lowerback -5.647829 -1.253461 -4.217411
upperback -1.666445 -1.506648 2.853433
thorax 1.616670 -0.761724 5.226936
lowerneck -24.455311 -4.335947 -12.834360
upperneck 21.316351 -4.978160 13.267650
head 11.478610 -1.690491 6.171022
rclavicle -0.000000 0.000000
rhumerus -48.144032 15.417710 -98.029915
rradius 44.099770
rwrist -24.218370
rhand -33.694099 -24.795650
rfingers 7.837522
rthumb -4.319480 -57.733501
lclavicle -0.000000 0.000000
lhumerus -29.965212 -13.832830 95.950470
lradius 28.905910
lwrist 1.759472
lhand -12.223750 -25.567192
lfingers 7.837522
lthumb 16.403311 6.820418
rfemur -25.090780 0.973820 19.991949
rtibia 68.142578
rfoot -18.187622 -13.666951
rtoes -12.406900
lfemur -17.659290 3.120018 -29.842121
ltibia 30.226900
lfoot -17.444241 10.123487
ltoes -0.134293
83
root 9.323590 16.384701 -25.321100 4.101470 -7.460860 2.503740
lowerback -5.531065 -1.332100 -4.300538
upperback -1.653256 -1.610202 2.820422
thorax 1.577697 -0.812946 5.234416
lowerneck -24.591049 -4.379452 -12.843270
upperneck 21.720051 -5.023271 13.140930
head 11.652410 -1.723975 6.133820
rclavicle -0.000000 0.000000
rhumerus -48.237862 15.143260 -97.904953
rradius 44.021561
rwrist -23.902342
rhand -33.759003 -25.523300
rfingers 7.837522
rthumb -4.382136 -58.460052
lclavicle -0.000000 0.000000
lhumerus -29.482201 -14.315400 95.854446
lradius 29.566130
lwrist 2.132790
lhand -11.081290 -25.280859
lfingers 7.837522
lthumb 17.503750 7.022070
rfemur -26.030512 1.259665 19.994371
rtibia 67.509865
rfoot -18.781401 -13.852410
rtoes -11.946770
lfemur -16.920090 2.963763 -30.047710
ltibia 30.093912
lfoot -16.957050 10.209111
ltoes -1.035120
84
root 9.333510 16.368401 -25.205601 3.804390 -7.268840 2.721150
lowerback -5.392079 -1.356256 -4.470422
upperback -1.531321 -1.637240 2.770064
thorax 1.631740 -0.830539 5.277778
lowerneck -24.738779 -4.460632 -13.009151
upperneck 21.967880 -5.056579 13.035440
head 11.775500 -1.761342 6.127408
rclavicle 0.000000 -0.000000
rhumerus -48.233242 15.009610 -97.693092
rradius 43.895172
rwrist -23.909271
rhand -33.943802 -26.394720
rfingers 7.837522
rthumb -4.560644 -59.328064
lclavicle 0.000000 -0.000000
lhumerus -28.912951 -14.985411 95.879196
lradius 30.344490
lwrist 2.789611
lhand -10.984512 -25.430901
lfingers 7.837522
lthumb 17.596920 6.864550
rfemur -26.728130 1.478400 19.845322
rtibia 66.772423
rfoot -19.400370 -14.138960
rtoes -10.085713
lfemur -15.987841 2.747932 -30.394102
ltibia 29.967741
lfoot -16.985649 10.435447
ltoes -2.512895
85
root 9.341850 16.355499 -25.090401 3.764770 -7.075160 2.903220
lowerback -5.612640 -1.296867 -4.540822
upperback -1.245310 -1.543487 2.643135
thorax 2.038344 -0.799588 5.185499
lowerneck -25.199572 -4.676936 -13.068330
upperneck 21.930590 -5.278185 13.013330
head 11.880111 -1.856239 6.094462
rclavicle -0.000000 -0.000000
rhumerus -47.821072 14.790270 -97.482117
rradius 43.853809
rwrist -24.102982
rhand -34.113968 -26.488771
rfingers 7.837522
rthumb -4.724896 -59.418922
lclavicle -0.000000 -0.000000
lhumerus -27.887312 -15.870801 95.746307
lradius 31.056080
lwrist 3.525280
lhand -11.177100 -25.599091
lfingers 7.837522
lthumb 17.411461 6.711144
rfemur -27.704821 1.670702 19.709690
rtibia 65.930367
rfoot -19.882719 -14.202320
rtoes -12.788490
lfemur -15.376350 2.590379 -30.694841
ltibia 29.850590
lfoot -17.611441 10.407187
ltoes -3.855830
